<svg xmlns="http://www.w3.org/2000/svg" viewBox="0 0 512 512" fill="#e11d48">
  <path d="M256 48a208 208 0 1 1 0 416 208 208 0 1 1 0-416zm0 464A256 256 0 1 0 256 0a256 256 0 1 0 0 512zM199.4 312.6c-31.2-31.2-31.2-81.9 0-113.1s81.9-31.2 113.1 0c9.4 9.4 24.6 9.4 33.9 0s9.4-24.6 0-33.9c-50-50-131-50-181 0s-50 131 0 181s131 50 181 0c9.4-9.4 9.4-24.6 0-33.9s-24.6-9.4-33.9 0c-31.2 31.2-81.9 31.2-113.1 0z"/>
  <path d="M256 96a160 160 0 1 1 0 320 160 160 0 1 1 0-320zm0 352A192 192 0 1 0 256 64a192 192 0 1 0 0 384z"/>
  <path d="M256 128a128 128 0 1 0 0 256 128 128 0 1 0 0-256z" opacity="0.4"/>
  <path d="M256 48c-9.2 0-18.3.5-27.2 1.5C312.5 62.7 376 135.5 376 224c0 88.5-63.5 161.3-147.2 174.5 8.9 1 18 1.5 27.2 1.5 114.9 0 208-93.1 208-208S370.9 48 256 48z" opacity="0.2"/>
</svg>

